/* XPM */
static char *e7bbd2ad0c1747a5a30ee7687fbfc42e[] = {
/* columns rows colors chars-per-pixel */
"32 32 54 1 ",
"  c #D6500C",
". c #D6510C",
"X c #D7510C",
"o c #D7520D",
"O c #D7530D",
"+ c #D8540D",
"@ c #D8550D",
"# c #D9570D",
"$ c #D9580D",
"% c #D95B0D",
"& c #DA5B0E",
"* c #D95C0D",
"= c #D95D0D",
"- c #DA5C0E",
"; c #DA5E0E",
": c #DB5F0E",
"> c #DC5E0E",
", c #DB610F",
"< c #DB620F",
"1 c #DD610F",
"2 c #DD620F",
"3 c #DC6510",
"4 c #DE6510",
"5 c #DF6810",
"6 c #DF6910",
"7 c #DF6D12",
"8 c #E16B11",
"9 c #E16C11",
"0 c #E26F11",
"q c #E27011",
"w c #E07113",
"e c #E07213",
"r c #E37212",
"t c #E37312",
"y c #E47512",
"u c #E47612",
"i c #E17514",
"p c #E27514",
"a c #E17614",
"s c #E57913",
"d c #E77B12",
"f c #E77C13",
"g c #E77E14",
"h c #E47C16",
"j c #E47D17",
"k c #E57F17",
"l c #E87E13",
"z c #E48017",
"x c #E58017",
"c c #E98013",
"v c #E88014",
"b c #E98014",
"n c #E48018",
"m c None",
/* pixels */
"mmmmmmmmmmmmmmmmmmmmmmmmmmmmmmmm",
"mmmmmmmmmmmmmmmmmmmmmmmmmmmmmmmm",
"mmmmmmmmmmmmmmmmmmmmmmmmmmmmmmmm",
"mmmmmmmmmmmmmmmmmmmmmmmmmmmmmmmm",
"mmmmmmmmmmmmmmmmmmmmmmmmmmmmmmmm",
"mmmmmmmmmmmmmmmmmO   O mmmmmmmmm",
"mmmmmmmmmmmmmmmOOO O O OO mmmmmm",
"mmmmmmmmmmmmmmOOOmmmmmmOOOOmmmmm",
"mmmmmmmmmmmmmmmmmmmmmmmmm+++mmmm",
"mm%%%%%%%%%%%;;;;%;;%%;;mm+%%mmm",
"mmm;;;;;;;;;;;;;;;;;;;;;;mm%%;mm",
"mmm<<<<<;<<<,,,,;<;<<<<<<<mm>>mm",
"mmmmm3mmmmmmmmmmmmmmmmmmmmmm11mm",
"mmmmmmmmmmmmmmmmmmmmmmmmmmmmm34m",
"mmmmmm7797777777777777777777m88m",
"mmmmmmwweeeewwwwwwwwwwwwwwwwm89m",
"mmmmmmmpiiiiiiiiiiiiiiiiiiiimqqm",
"mmmmmmmmmmmmmmmmmmmmmmmmmmmmmwqm",
"mmmmmmmmmmhhhhjjhhhhhhhjhhkmuumm",
"mmmmmmmmmmhxxhxxxxxhkkkkkkmmffmm",
"mmmmmmmmmmxxxxxxxxxxxxxxxmmfffmm",
"mmmmmmmmmmmxxxznxxxxxxxxmmfhhmmm",
"mmmmmmmmmmmmmmmmmmmmmmmmmcbbmmmm",
"mmmmmmmmmmmmmmbbbmmmmmmbbbbmmmmm",
"mmmmmmmmmmmmmmmbxcxbxcxbbbmmmmmm",
"mmmmmmmmmmmmmmmmmccbcccmmmmmmmmm",
"mmmmmmmmmmmmmmmmmmmmmmmmmmmmmmmm",
"mmmmmmmmmmmmmmmmmmmmmmmmmmmmmmmm",
"mmmmmmmmmmmmmmmmmmmmmmmmmmmmmmmm",
"mmmmmmmmmmmmmmmmmmmmmmmmmmmmmmmm",
"mmmmmmmmmmmmmmmmmmmmmmmmmmmmmmmm",
"mmmmmmmmmmmmmmmmmmmmmmmmmmmmmmmm"
};
