/* XPM */
static char *a96a9bf9cc194f7bbce58653623f1bdb[] = {
/* columns rows colors chars-per-pixel */
"16 16 36 1 ",
"  c #D64F0C",
". c #D7520D",
"X c #D8550D",
"o c #D8560D",
"O c #D9570D",
"+ c #D95B0D",
"@ c #D95C0D",
"# c #D95D0D",
"$ c #DC5F0E",
"% c #DC5F0F",
"& c #DB610F",
"* c #DB620F",
"= c #DE6510",
"- c #DE6911",
"; c #DD6A11",
": c #DE6A11",
"> c #E06C11",
", c #E37111",
"< c #E07012",
"1 c #E07113",
"2 c #E07213",
"3 c #E57812",
"4 c #E57A13",
"5 c #E77D13",
"6 c #E27815",
"7 c #E27915",
"8 c #E27A16",
"9 c #E47F17",
"0 c #E57F17",
"q c #E78015",
"w c #E58117",
"e c #E88013",
"r c #E98013",
"t c #E88014",
"y c #E58118",
"u c None",
/* pixels */
"uuuuuuuuuuuuuuuu",
"uuuuuuuuuuuuuuuu",
"uuuuuuuu    uuuu",
"uuuuuuuoouuu.uuu",
"u@@++@@@@@@@uouu",
"uu&&&&**&&&&u%&u",
"uuu::::::::::u=u",
"uuu111>2111111>u",
"uuuu766777767u1u",
"uuuuu9990000u43u",
"uuuuuyyyyyyyu5uu",
"uuuuuuuttuuuruuu",
"uuuuuuuurrrtuuuu",
"uuuuuuuuuuuuuuuu",
"uuuuuuuuuuuuuuuu",
"uuuuuuuuuuuuuuuu"
};
