/* XPM */
static char *_f8f97a83f5149c0a31317d4fb28a487[] = {
/* columns rows colors chars-per-pixel */
"64 64 69 1 ",
"  c #D6500C",
". c #D6510C",
"X c #D7510C",
"o c #D7520C",
"O c #D7530C",
"+ c #D7520D",
"@ c #D7530D",
"# c #D7540D",
"$ c #D8550D",
"% c #D8560D",
"& c #D9570D",
"* c #D9590D",
"= c #D95B0D",
"- c #DA5A0E",
"; c #DA5B0E",
": c #D95C0D",
"> c #DA5D0D",
", c #DB5D0E",
"< c #DA5E0E",
"1 c #DB5E0E",
"2 c #DA5F0E",
"3 c #DB5F0E",
"4 c #DA600E",
"5 c #DB610F",
"6 c #DB620F",
"7 c #DC600F",
"8 c #DD620F",
"9 c #DC630F",
"0 c #DD630F",
"q c #DC640F",
"w c #DC6510",
"e c #DE6510",
"r c #DE6710",
"t c #DF6810",
"y c #DE6A11",
"u c #DE6C12",
"i c #DF6E12",
"p c #E06A10",
"a c #E06C11",
"s c #E16D11",
"d c #E26F11",
"f c #E27111",
"g c #E07013",
"h c #E17213",
"j c #E37212",
"k c #E37412",
"l c #E47512",
"z c #E47612",
"x c #E47712",
"c c #E17414",
"v c #E27614",
"b c #E27715",
"n c #E57813",
"m c #E67913",
"M c #E67A13",
"N c #E67B13",
"B c #E67C13",
"V c #E77D13",
"C c #E27815",
"Z c #E77E14",
"A c #E77F14",
"S c #E47C16",
"D c #E47D16",
"F c #E57F17",
"G c #E87F14",
"H c #E58017",
"J c #E88014",
"K c #E48018",
"L c None",
/* pixels */
"LLLLLLLLLLLLLLLLLLLLLLLLLLLLLLLLLLLLLLLLLLLLLLLLLLLLLLLLLLLLLLLL",
"LLLLLLLLLLLLLLLLLLLLLLLLLLLLLLLLLLLLLLLLLLLLLLLLLLLLLLLLLLLLLLLL",
"LLLLLLLLLLLLLLLLLLLLLLLLLLLLLLLLLLLLLLLLLLLLLLLLLLLLLLLLLLLLLLLL",
"LLLLLLLLLLLLLLLLLLLLLLLLLLLLLLLLLLLLLLLLLLLLLLLLLLLLLLLLLLLLLLLL",
"LLLLLLLLLLLLLLLLLLLLLLLLLLLLLLLLLLLLLLLLLLLLLLLLLLLLLLLLLLLLLLLL",
"LLLLLLLLLLLLLLLLLLLLLLLLLLLLLLLLLLLLLLLLLLLLLLLLLLLLLLLLLLLLLLLL",
"LLLLLLLLLLLLLLLLLLLLLLLLLLLLLLLLLLLLLLLLLLLLLLLLLLLLLLLLLLLLLLLL",
"LLLLLLLLLLLLLLLLLLLLLLLLLLLLLLLLLLLLLLLLLLLLLLLLLLLLLLLLLLLLLLLL",
"LLLLLLLLLLLLLLLLLLLLLLLLLLLLLLLLLLLLLLLLLLLLLLLLLLLLLLLLLLLLLLLL",
"LLLLLLLLLLLLLLLLLLLLLLLLLLLLLLLLLLLLLLLLLLLLLLLLLLLLLLLLLLLLLLLL",
"LLLLLLLLLLLLLLLLLLLLLLLLLLLLLLLLLLL+      +  LLLLLLLLLLLLLLLLLLL",
"LLLLLLLLLLLLLLLLLLLLLLLLLLLLLLLL+             +oLLLLLLLLLLLLLLLL",
"LLLLLLLLLLLLLLLLLLLLLLLLLLLLLL+oo ooooooo ooo oo+oLLLLLLLLLLLLLL",
"LLLLLLLLLLLLLLLLLLLLLLLLLLLLooooooooooo+ooo+ooooooo+LLLLLLLLLLLL",
"LLLLLLLLLLLLLLLLLLLLLLLLLLL+ooo+o+o+LLLLLLLLo+o+oooo+LLLLLLLLLLL",
"LLLLLLLLLLLLLLLLLLLLLLLLLL+++++++LLLLLLLLLLLLLL####+#+LLLLLLLLLL",
"LLLLLLLLLLLLLLLLLLLLLLLLLLLLLLLLLLLLLLLLLLLLLLLLL$$$$$$LLLLLLLLL",
"LLLLLLLLLLLLLLLLLLLLLLLLLLLLLLLLLLLLLLLLLLLLLLLLLLL$$$$$LLLLLLLL",
"LLL===========================================LLLLLL$-$$=LLLLLLL",
"LLL:::::::==::::::::::::=2==::::::::::==::::::==LLLLL=-==$LLLLLL",
"LLLL::::22==:::2:::2::::22==::7:::::22==::::2=2=::LLLL=---LLLLLL",
"LLLL:7:72222:222:222:7:7222277:::7:72222:7:72222:77LLL,:-,-LLLLL",
"LLLLL4774444777774444477444477:744774444447744777744LLL:,,,,LLLL",
"LLLLL777474747777767777747474755777767477777477777777LLL7,7,LLLL",
"LLLLLLLqqqqq999q666w7qqq7qqq9999666qqqqq999999qq7qq79LLL7777LLLL",
"LLLLLLLLLwqq9ww7666wqqqqqqqq9ww9w66rqqqq9ww99w7wqqqwwwLLL777eLLL",
"LLLLLLLLLLLLLLLLLLLLLLLLLLLLLLLLLLLLLLLLLLLLLLLLLLLLLLLLL7q77LLL",
"LLLLLLLLLLLLLLLLLLLLLLLLLLLLLLLLLLLLLLLLLLLLLLLLLLLLLLLLLttttLLL",
"LLLLLLLLLLyyyyyyiiyyyyuuyyyyyyyyyyyyyyyyyyyyyyyyiyyyyyyLLwpwtLLL",
"LLLLLLLLLLLiyiyiyiyiuiuiyiyiyiuiuiyiiiiyuiuuuiyiyiiyyiiLLLttpLLL",
"LLLLLLLLLLLiiiiiiiiiiiiiiiiiiiiiiiiiiiiiiiiiiiiiiiiiiisLLLypppLL",
"LLLLLLLLLLLgggggggggiggggggggggggigggggigggggigggggiihhLLLsspsLL",
"LLLLLLLLLLLLgvvghhhhgggggggghhhhghhhhhhhhhhhhhvgghhhgvgLLLssssLL",
"LLLLLLLLLLLLLcgcccchvvvvvvvvcccccccccccccccccccgxcccccvLLLddddLL",
"LLLLLLLLLLLLLLcbcCbxvvcCxcbbcCcCccCcbCcCbxvCccbbxbcbcCCLLLjgjLLL",
"LLLLLLLLLLLLLLLLCCCCcCCCcCCcCCCCCCCCbcCCCcCCCCCbcbbCCcCLLjjjjLLL",
"LLLLLLLLLLLLLLLLLLLLLLLLLLLLLLLLLLLLLLLLLLLLLLLLLLLLLLLLLjxjjLLL",
"LLLLLLLLLLLLLLLLLLLLLLLLLLLLLLLLLLLLLLLLLLLLLLLLLLLLLLLLLxjxxLLL",
"LLLLLLLLLLLLLLLLLLSSSSSSSSSSSSSSSSSSSSSSSSSSSSSSSSSSSSLLxxxxxLLL",
"LLLLLLLLLLLLLLLLLLSSSHSSSHSSSSSSSSHSSSSSSSHSSSSSSSSSHLLLmbxmLLLL",
"LLLLLLLLLLLLLLLLLLHHFFFFFFFFFFFFHHHHSHHHFFFFFFFFHHSHLLLmmmmmLLLL",
"LLLLLLLLLLLLLLLLLLLHHHHHHHHHHHHHHHHHHHHHHHHHHHHHHHHLLLLmmVVLLLLL",
"LLLLLLLLLLLLLLLLLLLHHHHHHHHHHHHHHHHHHHHHHHHHHHHHHHLLLLVVVVmLLLLL",
"LLLLLLLLLLLLLLLLLLLLHHHHHHHHHHHHHHHHHHHHHHHHHHHHHLLLLVVVVVLLLLLL",
"LLLLLLLLLLLLLLLLLLLLLHHHHHHHHHHHHHHHHHHHHHHHHHHLLLLLSVJGSGLLLLLL",
"LLLLLLLLLLLLLLLLLLLLLLLHHHHHHHHHHHHHHHHHHHHHHLLLLLLJJJJVJLLLLLLL",
"LLLLLLLLLLLLLLLLLLLLLLLLLLLLLLLLLLLLLLLLLLLLLLLLLLJJJJJJLLLLLLLL",
"LLLLLLLLLLLLLLLLLLLLLLLLLLLLLLLLLLLLLLLLLLLLLLLLLJJJJJJLLLLLLLLL",
"LLLLLLLLLLLLLLLLLLLLLLLLLLJJJJJJJLLLLLLLLLLLLLJJJJJJJJLLLLLLLLLL",
"LLLLLLLLLLLLLLLLLLLLLLLLLLLJJJJJJJJJJLLLLLLJJJJJJJJJJLLLLLLLLLLL",
"LLLLLLLLLLLLLLLLLLLLLLLLLLLLLJJJJJJJJJJJJJJJJJJJJJJLLLLLLLLLLLLL",
"LLLLLLLLLLLLLLLLLLLLLLLLLLLLLLJJJJJJJJJJJJJJJJJJJLLLLLLLLLLLLLLL",
"LLLLLLLLLLLLLLLLLLLLLLLLLLLLLLLLLJJJJJJJJJJJJJJLLLLLLLLLLLLLLLLL",
"LLLLLLLLLLLLLLLLLLLLLLLLLLLLLLLLLLLLLJJJJJJLLLLLLLLLLLLLLLLLLLLL",
"LLLLLLLLLLLLLLLLLLLLLLLLLLLLLLLLLLLLLLLLLLLLLLLLLLLLLLLLLLLLLLLL",
"LLLLLLLLLLLLLLLLLLLLLLLLLLLLLLLLLLLLLLLLLLLLLLLLLLLLLLLLLLLLLLLL",
"LLLLLLLLLLLLLLLLLLLLLLLLLLLLLLLLLLLLLLLLLLLLLLLLLLLLLLLLLLLLLLLL",
"LLLLLLLLLLLLLLLLLLLLLLLLLLLLLLLLLLLLLLLLLLLLLLLLLLLLLLLLLLLLLLLL",
"LLLLLLLLLLLLLLLLLLLLLLLLLLLLLLLLLLLLLLLLLLLLLLLLLLLLLLLLLLLLLLLL",
"LLLLLLLLLLLLLLLLLLLLLLLLLLLLLLLLLLLLLLLLLLLLLLLLLLLLLLLLLLLLLLLL",
"LLLLLLLLLLLLLLLLLLLLLLLLLLLLLLLLLLLLLLLLLLLLLLLLLLLLLLLLLLLLLLLL",
"LLLLLLLLLLLLLLLLLLLLLLLLLLLLLLLLLLLLLLLLLLLLLLLLLLLLLLLLLLLLLLLL",
"LLLLLLLLLLLLLLLLLLLLLLLLLLLLLLLLLLLLLLLLLLLLLLLLLLLLLLLLLLLLLLLL",
"LLLLLLLLLLLLLLLLLLLLLLLLLLLLLLLLLLLLLLLLLLLLLLLLLLLLLLLLLLLLLLLL"
};
