/* XPM */
static char *abe4b1dd0ab34887fa7561d373debf48[] = {
/* columns rows colors chars-per-pixel */
"128 128 91 1 ",
"  c #D6500C",
". c #D6510C",
"X c #D7520C",
"o c #D7530C",
"O c #D7530D",
"+ c #D7540D",
"@ c #D8540D",
"# c #D8550D",
"$ c #D8560D",
"% c #D9570D",
"& c #D9580D",
"* c #D9590D",
"= c #D95B0D",
"- c #D9590E",
"; c #DA5A0E",
": c #DA5B0E",
"> c #D95C0D",
", c #DA5D0D",
"< c #DA5C0E",
"1 c #DB5C0E",
"2 c #DB5D0E",
"3 c #DA5E0E",
"4 c #DB5E0E",
"5 c #DA5F0E",
"6 c #DC5E0E",
"7 c #DC5F0F",
"8 c #DA600E",
"9 c #DB600E",
"0 c #DB610F",
"q c #DB620F",
"w c #DC600F",
"e c #DC610F",
"r c #DD620F",
"t c #DC630F",
"y c #DD630F",
"u c #DC640F",
"i c #DD640F",
"p c #DE640F",
"a c #DC6510",
"s c #DE6510",
"d c #DE6610",
"f c #DE6710",
"g c #DF6810",
"h c #DE6911",
"j c #DE6B11",
"k c #DE6C11",
"l c #DF6C12",
"z c #DF6D12",
"x c #DF6E12",
"c c #E06910",
"v c #E06A10",
"b c #E06B11",
"n c #E16C11",
"m c #E16D11",
"M c #E16E11",
"N c #E26F11",
"B c #E27011",
"V c #E07013",
"C c #E07113",
"Z c #E27112",
"A c #E07213",
"S c #E17313",
"D c #E37212",
"F c #E37412",
"G c #E47412",
"H c #E47512",
"J c #E47612",
"K c #E47712",
"L c #E57713",
"P c #E17414",
"I c #E17514",
"U c #E27614",
"Y c #E27715",
"T c #E57813",
"R c #E57913",
"E c #E67A13",
"W c #E67B13",
"Q c #E67C13",
"! c #E77C13",
"~ c #E77D13",
"^ c #E27815",
"/ c #E77D14",
"( c #E77E14",
") c #E47C16",
"_ c #E47D16",
"` c #E47E17",
"' c #E57F17",
"] c #E87F14",
"[ c #E58017",
"{ c #E88014",
"} c None",
/* pixels */
"}}}}}}}}}}}}}}}}}}}}}}}}}}}}}}}}}}}}}}}}}}}}}}}}}}}}}}}}}}}}}}}}}}}}}}}}}}}}}}}}}}}}}}}}}}}}}}}}}}}}}}}}}}}}}}}}}}}}}}}}}}}}}}}}",
"}}}}}}}}}}}}}}}}}}}}}}}}}}}}}}}}}}}}}}}}}}}}}}}}}}}}}}}}}}}}}}}}}}}}}}}}}}}}}}}}}}}}}}}}}}}}}}}}}}}}}}}}}}}}}}}}}}}}}}}}}}}}}}}}",
"}}}}}}}}}}}}}}}}}}}}}}}}}}}}}}}}}}}}}}}}}}}}}}}}}}}}}}}}}}}}}}}}}}}}}}}}}}}}}}}}}}}}}}}}}}}}}}}}}}}}}}}}}}}}}}}}}}}}}}}}}}}}}}}}",
"}}}}}}}}}}}}}}}}}}}}}}}}}}}}}}}}}}}}}}}}}}}}}}}}}}}}}}}}}}}}}}}}}}}}}}}}}}}}}}}}}}}}}}}}}}}}}}}}}}}}}}}}}}}}}}}}}}}}}}}}}}}}}}}}",
"}}}}}}}}}}}}}}}}}}}}}}}}}}}}}}}}}}}}}}}}}}}}}}}}}}}}}}}}}}}}}}}}}}}}}}}}}}}}}}}}}}}}}}}}}}}}}}}}}}}}}}}}}}}}}}}}}}}}}}}}}}}}}}}}",
"}}}}}}}}}}}}}}}}}}}}}}}}}}}}}}}}}}}}}}}}}}}}}}}}}}}}}}}}}}}}}}}}}}}}}}}}}}}}}}}}}}}}}}}}}}}}}}}}}}}}}}}}}}}}}}}}}}}}}}}}}}}}}}}}",
"}}}}}}}}}}}}}}}}}}}}}}}}}}}}}}}}}}}}}}}}}}}}}}}}}}}}}}}}}}}}}}}}}}}}}}}}}}}}}}}}}}}}}}}}}}}}}}}}}}}}}}}}}}}}}}}}}}}}}}}}}}}}}}}}",
"}}}}}}}}}}}}}}}}}}}}}}}}}}}}}}}}}}}}}}}}}}}}}}}}}}}}}}}}}}}}}}}}}}}}}}}}}}}}}}}}}}}}}}}}}}}}}}}}}}}}}}}}}}}}}}}}}}}}}}}}}}}}}}}}",
"}}}}}}}}}}}}}}}}}}}}}}}}}}}}}}}}}}}}}}}}}}}}}}}}}}}}}}}}}}}}}}}}}}}}}}}}}}}}}}}}}}}}}}}}}}}}}}}}}}}}}}}}}}}}}}}}}}}}}}}}}}}}}}}}",
"}}}}}}}}}}}}}}}}}}}}}}}}}}}}}}}}}}}}}}}}}}}}}}}}}}}}}}}}}}}}}}}}}}}}}}}}}}}}}}}}}}}}}}}}}}}}}}}}}}}}}}}}}}}}}}}}}}}}}}}}}}}}}}}}",
"}}}}}}}}}}}}}}}}}}}}}}}}}}}}}}}}}}}}}}}}}}}}}}}}}}}}}}}}}}}}}}}}}}}}}}}}}}}}}}}}}}}}}}}}}}}}}}}}}}}}}}}}}}}}}}}}}}}}}}}}}}}}}}}}",
"}}}}}}}}}}}}}}}}}}}}}}}}}}}}}}}}}}}}}}}}}}}}}}}}}}}}}}}}}}}}}}}}}}}}}}}}}}}}}}}}}}}}}}}}}}}}}}}}}}}}}}}}}}}}}}}}}}}}}}}}}}}}}}}}",
"}}}}}}}}}}}}}}}}}}}}}}}}}}}}}}}}}}}}}}}}}}}}}}}}}}}}}}}}}}}}}}}}}}}}}}}}}}}}}}}}}}}}}}}}}}}}}}}}}}}}}}}}}}}}}}}}}}}}}}}}}}}}}}}}",
"}}}}}}}}}}}}}}}}}}}}}}}}}}}}}}}}}}}}}}}}}}}}}}}}}}}}}}}}}}}}}}}}}}}}}}}}}}}}}}}}}}}}}}}}}}}}}}}}}}}}}}}}}}}}}}}}}}}}}}}}}}}}}}}}",
"}}}}}}}}}}}}}}}}}}}}}}}}}}}}}}}}}}}}}}}}}}}}}}}}}}}}}}}}}}}}}}}}}}}}}}}}}}}}}}}}}}}}}}}}}}}}}}}}}}}}}}}}}}}}}}}}}}}}}}}}}}}}}}}}",
"}}}}}}}}}}}}}}}}}}}}}}}}}}}}}}}}}}}}}}}}}}}}}}}}}}}}}}}}}}}}}}}}}}}}}}}}}}}}}}}}}}}}}}}}}}}}}}}}}}}}}}}}}}}}}}}}}}}}}}}}}}}}}}}}",
"}}}}}}}}}}}}}}}}}}}}}}}}}}}}}}}}}}}}}}}}}}}}}}}}}}}}}}}}}}}}}}}}}}}}}}}}}}}}}}}}}}}}}}}}}}}}}}}}}}}}}}}}}}}}}}}}}}}}}}}}}}}}}}}}",
"}}}}}}}}}}}}}}}}}}}}}}}}}}}}}}}}}}}}}}}}}}}}}}}}}}}}}}}}}}}}}}}}}}}}}}}}}}}}}}}}}}}}}}}}}}}}}}}}}}}}}}}}}}}}}}}}}}}}}}}}}}}}}}}}",
"}}}}}}}}}}}}}}}}}}}}}}}}}}}}}}}}}}}}}}}}}}}}}}}}}}}}}}}}}}}}}}}}}}}}}}}}}}}}}}}}}}}}}}}}}}}}}}}}}}}}}}}}}}}}}}}}}}}}}}}}}}}}}}}}",
"}}}}}}}}}}}}}}}}}}}}}}}}}}}}}}}}}}}}}}}}}}}}}}}}}}}}}}}}}}}}}}}}}}}}}}}}}}}}}}}}}}}}}}}}}}}}}}}}}}}}}}}}}}}}}}}}}}}}}}}}}}}}}}}}",
"}}}}}}}}}}}}}}}}}}}}}}}}}}}}}}}}}}}}}}}}}}}}}}}}}}}}}}}}}}}}}}}}}}}}}}}}}}}}}}}}}}}}}}}}}}}}}}}}}}}}}}}}}}}}}}}}}}}}}}}}}}}}}}}}",
"}}}}}}}}}}}}}}}}}}}}}}}}}}}}}}}}}}}}}}}}}}}}}}}}}}}}}}}}}}}}}}}}}}}}}}}}  O O O O O O}}}}}}}}}}}}}}}}}}}}}}}}}}}}}}}}}}}}}}}}}}}",
"}}}}}}}}}}}}}}}}}}}}}}}}}}}}}}}}}}}}}}}}}}}}}}}}}}}}}}}}}}}}}}}}}}}   O               O   }}}}}}}}}}}}}}}}}}}}}}}}}}}}}}}}}}}}}}",
"}}}}}}}}}}}}}}}}}}}}}}}}}}}}}}}}}}}}}}}}}}}}}}}}}}}}}}}}}}}}}}}} O                        O O}}}}}}}}}}}}}}}}}}}}}}}}}}}}}}}}}}}",
"}}}}}}}}}}}}}}}}}}}}}}}}}}}}}}}}}}}}}}}}}}}}}}}}}}}}}}}}}}}}}O                                 }}}}}}}}}}}}}}}}}}}}}}}}}}}}}}}}}",
"}}}}}}}}}}}}}}}}}}}}}}}}}}}}}}}}}}}}}}}}}}}}}}}}}}}}}}}}}}}OO    O       o     o         o  o   O}}}}}}}}}}}}}}}}}}}}}}}}}}}}}}}",
"}}}}}}}}}}}}}}}}}}}}}}}}}}}}}}}}}}}}}}}}}}}}}}}}}}}}}}}}}o      O O   O o o    O       Oo o        }}}}}}}}}}}}}}}}}}}}}}}}}}}}}",
"}}}}}}}}}}}}}}}}}}}}}}}}}}}}}}}}}}}}}}}}}}}}}}}}}}}}}}}OooooOOO   OOXX oo ooXX oooo XX oo ooXXoX  oo#}}}}}}}}}}}}}}}}}}}}}}}}}}}",
"}}}}}}}}}}}}}}}}}}}}}}}}}}}}}}}}}}}}}}}}}}}}}}}}}}}}}}O oo  XXOO  XXXXoo o+ oXooo + oooo oXXXXXXo oo XX}}}}}}}}}}}}}}}}}}}}}}}}}",
"}}}}}}}}}}}}}}}}}}}}}}}}}}}}}}}}}}}}}}}}}}}}}}}}}}}}}OXXooooXX Oo  OXXo}}}}}}}}}}}}}}}oo o OXXX ooooXXoo}}}}}}}}}}}}}}}}}}}}}}}}",
"}}}}}}}}}}}}}}}}}}}}}}}}}}}}}}}}}}}}}}}}}}}}}}}}}}}OooooOOOoooOO#+O}}}}}}}}}}}}}}}}}}}}}}#++#OOOOOOOOoooO}}}}}}}}}}}}}}}}}}}}}}}",
"}}}}}}}}}}}}}}}}}}}}}}}}}}}}}}}}}}}}}}}}}}}}}}}}}}OOOoooOOOoooOO}}}}}}}}}}}}}}}}}}}}}}}}}}}}OOOOOOOOOoooOO}}}}}}}}}}}}}}}}}}}}}}",
"}}}}}}}}}}}}}}}}}}}}}}}}}}}}}}}}}}}}}}}}}}}}}}}}}}++++++++++++}}}}}}}}}}}}}}}}}}}}}}}}}}}}}}}}##OO##o@@@o#o#}}}}}}}}}}}}}}}}}}}}",
"}}}}}}}}}}}}}}}}}}}}}}}}}}}}}}}}}}}}}}}}}}}}}}}}}}}}}}}}}}}}}}}}}}}}}}}}}}}}}}}}}}}}}}}}}}}}}}}}@O-@@@@@#####}}}}}}}}}}}}}}}}}}}",
"}}}}}}}}}}}}}}}}}}}}}}}}}}}}}}}}}}}}}}}}}}}}}}}}}}}}}}}}}}}}}}}}}}}}}}}}}}}}}}}}}}}}}}}}}}}}}}}}}}@@##@-######}}}}}}}}}}}}}}}}}}",
"}}}}}}}}}}}}}}}}}}}}}}}}}}}}}}}}}}}}}}}}}}}}}}}}}}}}}}}}}}}}}}}}}}}}}}}}}}}}}}}}}}}}}}}}}}}}}}}}}}}@#=##=#####}}}}}}}}}}}}}}}}}}",
"}}}}}==================================================================================}}}}}}}}}}}}}#####=#####}}}}}}}}}}}}}}}}}",
"}}}}}==================>===============================>==================================}}}}}}}}}}}}#=o;%%=;#;}}}}}}}}}}}}}}}}",
"}}}}}=================>>==============================>>====================>=>>============>}}}}}}}}}}=;##=#;##;}}}}}}}}}}}}}}}",
"}}}}}}>>>>>>>>>>>>>>>>>>>>>>>>>>>>>>>>>>>>>>>>>>>>>>>>>>>>>>>>>>>>>>>>>>>>>>>>>>>>>>>>>>>>>>>>}}}}}}}}}}#=;;#===;=}}}}}}}}}}}}}}",
"}}}}}}>>>>>>>>>>====5=>>>>>>>>==>>>>>>==>>>>>>>>===5==>>>>>>=55=>>>>>>>>====5=>>>>>>>>>>====5=>>}}}}}}}}}---------}}}}}}}}}}}}}}",
"}}}}}}>>>>>>6>6>5=5==5>>9>>>>>>=9>>>>>>=>>>>>6>>5=5==5>>>9>>=>==>>>>>6>>5=5==5>>>>>>>6>>5=5==5>>6}}}}}}}}=--;-;;;;;}}}}}}}}}}}}}",
"}}}}}}}7>9>00>9>7555>9>0>00>9>55>00>9>55>0>7>9w97555>9>09>7>>>55>0>7>9w97555>9>0>0>7>9w97555>9>0>77}}}}}}}1-=--=;;==}}}}}}}}}}}}",
"}}}}}}}>w>9>>9>9=555>>9>0>>7>0550>>7>055w>0>0>9>=555>>9>>0>0>955w>0>0>9>=555>>9>w>0>0>9>=555>>9>0>7>}}}}}}}171-7716>}}}}}}}}}}}}",
"}}}}}}}}55550>0955555588>99>5555>99>55555588>99>555555550>0955555588>99>555555555588>99>88555557>0855}}}}}}}1111=111;}}}}}}}}}}}",
"}}}}}}}}8888999988888889099099880990888888890990888888889989998888890990888888888889099089888887998999}}}}}}11>611116}}}}}}}}}}}",
"}}}}}}}}}999999999999999999999909999999999999999999999999999999099999999999999999999999999900>009999999}}}}}}6>6>61w66}}}}}}}}}}",
"}}}}}}}}}}000000000000000000000000000000000000000000000000000000000000000000000000000000000000000000000}}}}}}ww6w66666}}}}}}}}}}",
"}}}}}}}}}}}a009u009u000u9u000u0u0u0u0000u9u0u00u0000u0u09u000u0u00u000u0u00u00009u0000u0000u0u00000uu99w}}}}}}wwwww1ww}}}}}}}}}}",
"}}}}}}}}}}}}wauuuuuwuu0uuwuu0u0u0u0uuuuuwuu0uuuuuuuuu0uuuwuu0u0uu0uuawu0uuuuuuuuuuuuuuuuuu0u0uuuuuuuuuauu}}}}}wwwwwwwww}}}}}}}}}",
"}}}}}}}}}}}}}}uuuauuuuuuuuuuuuuuuuuuuuuuuuuauuuuuuuuuuuuuuuuuuuuuuuuaaaauuuuuuuuuuwauuuuuuuuuuuuuuuuuuuuu}}}}}}wwwawwww}}}}}}}}}",
"}}}}}}}}}}}}}}}}}aaahuuuaaaauuuhuuuhauuuaaaauuuuuuaaaaaaaaaauuuhuuuuaaaauuuuaauuaaaauuuuaauuaauhuuuuuuaaaa}}}}}wwpawpwp}}}}}}}}}",
"}}}}}}}}}}}}}}}}}}}}}}}}}}}}}}}}}}}}}}}}}}}}}}}}}}}}}}}}}}}}}}}}}}}}}}}}}}}}}}}}}}}}}}}}}}}}}}}}}}}}}}}}}}}}}}}}supwpupw}}}}}}}}",
"}}}}}}}}}}}}}}}}}}}}}}}}}}}}}}}}}}}}}}}}}}}}}}}}}}}}}}}}}}}}}}}}}}}}}}}}}}}}}}}}}}}}}}}}}}}}}}}}}}}}}}}}}}}}}}}}upupupup}}}}}}}}",
"}}}}}}}}}}}}}}}}}}}}}}}}}}}}}}}}}}}}}}}}}}}}}}}}}}}}}}}}}}}}}}}}}}}}}}}}}}}}}}}}}}}}}}}}}}}}}}}}}}}}}}}}}}}}}}}}pppppppp}}}}}}}}",
"}}}}}}}}}}}}}}}}}}}}}}}}}}}}}}}}}}}}}}}}}}}}}}}}}}}}}}}}}}}}}}}}}}}}}}}}}}}}}}}}}}}}}}}}}}}}}}}}}}}}}}}}}}}}}}}}ssssssss}}}}}}}}",
"}}}}}}}}}}}}}}}}}}}}hhhhhhhhhhhhlallhhhhhhhhhhhhlalahhhhhhhhhhhhhhhhlulallhhhhhhhhhhhhhhhhhhlulallhhhhhhhhh}}}}}}usasauuc}}}}}}}",
"}}}}}}}}}}}}}}}}}}}}hlhkhkhkhlhkxlllhlhkhkhkhhkhllllhlhkhkhkhlhkkkhhllllllkhhkhkhhkhkkhlhkhhllllllhlhkhkhlhk}}}}}lccccsll}}}}}}}",
"}}}}}}}}}}}}}}}}}}}}llllkkkkllllllhhllllkkkkllllhlllllllkkkkllllkkllhklllhhlhlkkllllkkklkkllhklllhhkhlkkllll}}}}}ccpcsccp}}}}}}}",
"}}}}}}}}}}}}}}}}}}}}lllxkkkklllxlxkkllllxxkklllxklllllllxkkklllxkklxkkllllkxkxxkllllkkxlkklxkkllllkxkxxkllll}}}}}sulcculc}}}}}}}",
"}}}}}}}}}}}}}}}}}}}}}xxxkxkxxxxxlkxxxlxxxlxxxlxxkkxlxlxxxxxxxlxxxxxlxxxllxxxxxxxxxxxxlxxxxxxxxxxxxxxxxxxkxxxk}}}}cccccccc}}}}}}}",
"}}}}}}}}}}}}}}}}}}}}}xxxxxCkxxxxxkxxxxxxxxxxxxxCkCxxxxxxxxxxxxxxxxxxxxxxxxxxxxxxxCxxxxxxxxxxxCxxxxxxxxxxCkxxC}}}}cncncccc}}}}}}}",
"}}}}}}}}}}}}}}}}}}}}}}VVVVVCVVVVCCCxxCCxxCCxxVVVCCCCxCCxxCCxVVVVxCxCCCVVxVCxCxxCVVVVxVCCxCxCVVVVxVCxCxxCnCCCC}}}}nnckcncn}}}}}}}",
"}}}}}}}}}}}}}}}}}}}}}}VVVVVPVVVVCCCCCCCCCCCCVVVVCCCCCCCCCCCCVVVVCCCCPVVVVVCCCCCCVVVVVVCCCCCCVVVVVVCCCCCCCCCCC}}}}nnnnnnnn}}}}}}}",
"}}}}}}}}}}}}}}}}}}}}}}}CAAAACCPVAAAAAAAAAAAACCCCAAAAAAAAUCAACCCUCPCCAAAAAAAAAAAACCUCCCAAAAAAAAAAAAAAAAAAAAAAA}}}}nnCcnnNN}}}}}}}",
"}}}}}}}}}}}}}}}}}}}}}}}UCCUPUCUPAUAUUCAUUCAUUCUUAUAUAUAUCCCUUUCPPVPPAUUAUCAUUAUCCUCUCUAUCUUCAUUAAUAUUAUCUUCUC}}}}nCnNNnCn}}}}}}}",
"}}}}}}}}}}}}}}}}}}}}}}}}UUAVUCPPUAPPCUAPCUAPCUUCUAPPUAPPUCUCCUPPPPPPPPAUCAUPPACUPPPPUUCAUACUPPPACAUPPACUPPCUP}}}}NNNNNNNC}}}}}}}",
"}}}}}}}}}}}}}}}}}}}}}}}}}UUUUUPPAUPPAUUUAUUAUUCUAUPPAUPAUUUCUUPPPPPPPPPUUUAPPUAU^PPPUCUUAUAUPPPUUUAPPUAUPPPU}}}}}NNNNNNNN}}}}}}}",
"}}}}}}}}}}}}}}}}}}}}}}}}}}PPUUUUPUUUUUUUPUUU^P)UPUUUUUUUUUUUUUUU^^UUUUUUUUUU^UUUUUUUUUUP^UUUUUUUUUUU^UUU^UUU}}}}}CNDNNNNC}}}}}}}",
"}}}}}}}}}}}}}}}}}}}}}}}}}}}^UUUU^UUUUUUU^UUUPPUU^UUUUUUUUUUUUPUUUUUUUUUUUUUUUUUUUPUUUUUPUUUUUUUUUUUUUUUUPPUU}}}}}DCDCDDDD}}}}}}}",
"}}}}}}}}}}}}}}}}}}}}}}}}}}}}}UU)^^^^^^^^^^^^^^^^^^^^^^^^^^^^^^)P^^^^^^^^^^^^^^^^^^^^)PU)^^^^^^^^^^^^^^^^^^^^}}}}}DDDDDDDD}}}}}}}",
"}}}}}}}}}}}}}}}}}}}}}}}}}}}}}}}}}^^^^^^^^^^^^^^^^^^^^^^^^^^^^^P)^^^^^^^^^^^^^^^^^^^^^^U)^^^^^^^^^^^^^^^^^^^}}}}}}DDDDDDDD}}}}}}}",
"}}}}}}}}}}}}}}}}}}}}}}}}}}}}}}}}}}}}}}}}}}}}}}}}}}}}}}}}}}}}}}}}}}}}}}}}}}}}}}}}}}}}}}}}}}}}}}}}}}}}}}}}}}}}}}}}FDFFFDDD}}}}}}}}",
"}}}}}}}}}}}}}}}}}}}}}}}}}}}}}}}}}}}}}}}}}}}}}}}}}}}}}}}}}}}}}}}}}}}}}}}}}}}}}}}}}}}}}}}}}}}}}}}}}}}}}}}}}}}}}}}}HHHHHHHL}}}}}}}}",
"}}}}}}}}}}}}}}}}}}}}}}}}}}}}}}}}}}}}}}}}}}}}}}}}}}}}}}}}}}}}}}}}}}}}}}}}}}}}}}}}}}}}}}}}}}}}}}}}}}}}}}}}}}}}}}}}HHHHHHUD}}}}}}}}",
"}}}}}}}}}}}}}}}}}}}}}}}}}}}}}}}}}}}__)__))_)_)_)___)_))_))_)_)_))_)))_))___)_))_))_)_)_))_)))_))____))_)__}}}}}LHHKHHHLL}}}}}}}}",
"}}}}}}}}}}}}}}}}}}}}}}}}}}}}}}}}}}}_)))))))))))))))_)))))))))))_)))))))))))_))))))))))))))))_)))))_)))))))}}}}}LKHKKLLL}}}}}}}}}",
"}}}}}}}}}}}}}}}}}}}}}}}}}}}}}}}}}}}______________________________________________________________________}}}}}}LTTTTTTL}}}}}}}}}",
"}}}}}}}}}}}}}}}}}}}}}}}}}}}}}}}}}}}_____________________________________________________________________}}}}}})LTTTTTTT}}}}}}}}}",
"}}}}}}}}}}}}}}}}}}}}}}}}}}}}}}}}}}}````_```````````````_```````````````````````_````````````````_```````}}}}}}LTTTTTTT}}}}}}}}}}",
"}}}}}}}}}}}}}}}}}}}}}}}}}}}}}}}}}}}}`[`[`[''''''`[`'''''''''''''``[`['''''''''''''''''''''''''''''''`[_}}}}}}!T!QTQTTT}}}}}}}}}}",
"}}}}}}}}}}}}}}}}}}}}}}}}}}}}}}}}}}}}[`[`''''''''[`['''''''''''''`[`[''''''''''''''''''''''''''''''''[[}}}}}}}T!TTQT!Q}}}}}}}}}}}",
"}}}}}}}}}}}}}}}}}}}}}}}}}}}}}}}}}}}}[[[[[[[[[[[[[[[[[[[[[[[[[[[[[[[[[[[[[[[[[[[[[[[[[[[[[[[[[[[[[[[[[}}}}}}}T!QQQ!!QQ}}}}}}}}}}}",
"}}}}}}}}}}}}}}}}}}}}}}}}}}}}}}}}}}}}}[[[[[[[[[[[[[[[[[[[[[[[[[[[[[[[[[[[[[[[[[[[[[[[[[[[[[[[[[[[[[[[}}}}}}}TQQQTQTQQ}}}}}}}}}}}}",
"}}}}}}}}}}}}}}}}}}}}}}}}}}}}}}}}}}}}}[[[[[[[[[[[[[[[[[[[[[[[[[[[[[[[[[[[[[[[[[[[[[[[[[[[[[[[[[[[[[[}}}}}}}}!QQQQQQQQ}}}}}}}}}}}}",
"}}}}}}}}}}}}}}}}}}}}}}}}}}}}}}}}}}}}}}[[[[[[[[[[[[[[[[[[[[[[[[[[[[[[[[[[[[[[[[[[[[[[[[[[[[[[[[[[[[}}}}}}}}!!!!!!!!!}}}}}}}}}}}}}",
"}}}}}}}}}}}}}}}}}}}}}}}}}}}}}}}}}}}}}}}[[[[[[[[[[[[[[[[[[[[[[[[[[[[[[[[[[[[[[[[[[[[[[[[[[[[[[[[[}}}}}}}}}!!!Q!!!!!!}}}}}}}}}}}}}",
"}}}}}}}}}}}}}}}}}}}}}}}}}}}}}}}}}}}}}}}}[[[[[[[[[[[[[[[[[[[[[[[[[[[[[[[[[[[[[[[[[[[[[[[[[[[[[[[}}}}}}}}}]_]{]]]!!!}}}}}}}}}}}}}}",
"}}}}}}}}}}}}}}}}}}}}}}}}}}}}}}}}}}}}}}}}}[[[[[[[[[[[[[[[[[[[[[[[[[[[[[[[[[[[[[[[[[[[[[[[[[[[[}}}}}}}}}}]_!!]_!_!{}}}}}}}}}}}}}}}",
"}}}}}}}}}}}}}}}}}}}}}}}}}}}}}}}}}}}}}}}}}}[[[[[[[[[[[[[[[[[[[[[[[[[[[[[[[[[[[[[[[[[[[[[[[[[}}}}}}}}}}}]]]]{]{!]]}}}}}}}}}}}}}}}}",
"}}}}}}}}}}}}}}}}}}}}}}}}}}}}}}}}}}}}}}}}}}}}[[[[[[[[[[[[[[[[[[[[[[[[[[[[[[[[[[[[[[[[[[[[}}}}}}}}}}}}}]]]]]{{{]]]}}}}}}}}}}}}}}}}",
"}}}}}}}}}}}}}}}}}}}}}}}}}}}}}}}}}}}}}}}}}}}}}}}}}}}}}}}}}}}}}}}}}}}}}}}}}}}}}}}}}}}}}}}}}}}}}}}}}}}}]]]]]]]{{]]}}}}}}}}}}}}}}}}}",
"}}}}}}}}}}}}}}}}}}}}}}}}}}}}}}}}}}}}}}}}}}}}}}}}}}}}}}}}}}}}}}}}}}}}}}}}}}}}}}}}}}}}}}}}}}}}}}}}}}{{]{{{{{{{{{}}}}}}}}}}}}}}}}}}",
"}}}}}}}}}}}}}}}}}}}}}}}}}}}}}}}}}}}}}}}}}}}}}}}}}}}}}}}}}}}}}}}}}}}}}}}}}}}}}}}}}}}}}}}}}}}}}}}}}{{{{{{{{{{{{}}}}}}}}}}}}}}}}}}}",
"}}}}}}}}}}}}}}}}}}}}}}}}}}}}}}}}}}}}}}}}}}}}}}}}}}}}}}}}}}}}}}}}}}}}}}}}}}}}}}}}}}}}}}}}}}}}}}}{{{{{{{{{{{{{}}}}}}}}}}}}}}}}}}}}",
"}}}}}}}}}}}}}}}}}}}}}}}}}}}}}}}}}}}}}}}}}}}}}}}}}}{{{{{{{{{{{{{{}}}}}}}}}}}}}}}}}}}}}}}}}}}}}{{{{{{{{{{{{{{}}}}}}}}}}}}}}}}}}}}}",
"}}}}}}}}}}}}}}}}}}}}}}}}}}}}}}}}}}}}}}}}}}}}}}}}}}}{{{{{{{{{{{{{{{}}}}}}}}}}}}}}}}}}}}}}}}}{{{{{{{{{{{{{{{}}}}}}}}}}}}}}}}}}}}}}",
"}}}}}}}}}}}}}}}}}}}}}}}}}}}}}}}}}}}}}}}}}}}}}}}}}}}}{{{{{{{{{{{{{{{{{}}}}}}}}}}}}}}}}}}{{{{{{{{{{{{{{{{{}}}}}}}}}}}}}}}}}}}}}}}}",
"}}}}}}}}}}}}}}}}}}}}}}}}}}}}}}}}}}}}}}}}}}}}}}}}}}}}}{{{{{{{{{{{{{{{{{{{{{}}}}}}}}{{{{{{{{{{{{{{{{{{{{{}}}}}}}}}}}}}}}}}}}}}}}}}",
"}}}}}}}}}}}}}}}}}}}}}}}}}}}}}}}}}}}}}}}}}}}}}}}}}}}}}}}{{{{{{{{{{{{{{{{{{{{{{{{{{{{{{{{{{{{{{{{{{{{{{{}}}}}}}}}}}}}}}}}}}}}}}}}}",
"}}}}}}}}}}}}}}}}}}}}}}}}}}}}}}}}}}}}}}}}}}}}}}}}}}}}}}}}{{{{{{{{{{{{{{{{{{{{{{{{{{{{{{{{{{{{{{{{{{{{}}}}}}}}}}}}}}}}}}}}}}}}}}}}",
"}}}}}}}}}}}}}}}}}}}}}}}}}}}}}}}}}}}}}}}}}}}}}}}}}}}}}}}}}}{{{{{{{{{{{{{{{{{{{{{{{{{{{{{{{{{{{{{{{{}}}}}}}}}}}}}}}}}}}}}}}}}}}}}}",
"}}}}}}}}}}}}}}}}}}}}}}}}}}}}}}}}}}}}}}}}}}}}}}}}}}}}}}}}}}}}{{{{{{{{{{{{{{{{{{{{{{{{{{{{{{{{{{{{}}}}}}}}}}}}}}}}}}}}}}}}}}}}}}}}",
"}}}}}}}}}}}}}}}}}}}}}}}}}}}}}}}}}}}}}}}}}}}}}}}}}}}}}}}}}}}}}}}{{{{{{{{{{{{{{{{{{{{{{{{{{{{{{{}}}}}}}}}}}}}}}}}}}}}}}}}}}}}}}}}}",
"}}}}}}}}}}}}}}}}}}}}}}}}}}}}}}}}}}}}}}}}}}}}}}}}}}}}}}}}}}}}}}}}}}{{{{{{{{{{{{{{{{{{{{{{{{{}}}}}}}}}}}}}}}}}}}}}}}}}}}}}}}}}}}}}",
"}}}}}}}}}}}}}}}}}}}}}}}}}}}}}}}}}}}}}}}}}}}}}}}}}}}}}}}}}}}}}}}}}}}}}{{{{{{{{{{{{{{{{{{}}}}}}}}}}}}}}}}}}}}}}}}}}}}}}}}}}}}}}}}}",
"}}}}}}}}}}}}}}}}}}}}}}}}}}}}}}}}}}}}}}}}}}}}}}}}}}}}}}}}}}}}}}}}}}}}}}}}}}}}}}}}}}}}}}}}}}}}}}}}}}}}}}}}}}}}}}}}}}}}}}}}}}}}}}}}",
"}}}}}}}}}}}}}}}}}}}}}}}}}}}}}}}}}}}}}}}}}}}}}}}}}}}}}}}}}}}}}}}}}}}}}}}}}}}}}}}}}}}}}}}}}}}}}}}}}}}}}}}}}}}}}}}}}}}}}}}}}}}}}}}}",
"}}}}}}}}}}}}}}}}}}}}}}}}}}}}}}}}}}}}}}}}}}}}}}}}}}}}}}}}}}}}}}}}}}}}}}}}}}}}}}}}}}}}}}}}}}}}}}}}}}}}}}}}}}}}}}}}}}}}}}}}}}}}}}}}",
"}}}}}}}}}}}}}}}}}}}}}}}}}}}}}}}}}}}}}}}}}}}}}}}}}}}}}}}}}}}}}}}}}}}}}}}}}}}}}}}}}}}}}}}}}}}}}}}}}}}}}}}}}}}}}}}}}}}}}}}}}}}}}}}}",
"}}}}}}}}}}}}}}}}}}}}}}}}}}}}}}}}}}}}}}}}}}}}}}}}}}}}}}}}}}}}}}}}}}}}}}}}}}}}}}}}}}}}}}}}}}}}}}}}}}}}}}}}}}}}}}}}}}}}}}}}}}}}}}}}",
"}}}}}}}}}}}}}}}}}}}}}}}}}}}}}}}}}}}}}}}}}}}}}}}}}}}}}}}}}}}}}}}}}}}}}}}}}}}}}}}}}}}}}}}}}}}}}}}}}}}}}}}}}}}}}}}}}}}}}}}}}}}}}}}}",
"}}}}}}}}}}}}}}}}}}}}}}}}}}}}}}}}}}}}}}}}}}}}}}}}}}}}}}}}}}}}}}}}}}}}}}}}}}}}}}}}}}}}}}}}}}}}}}}}}}}}}}}}}}}}}}}}}}}}}}}}}}}}}}}}",
"}}}}}}}}}}}}}}}}}}}}}}}}}}}}}}}}}}}}}}}}}}}}}}}}}}}}}}}}}}}}}}}}}}}}}}}}}}}}}}}}}}}}}}}}}}}}}}}}}}}}}}}}}}}}}}}}}}}}}}}}}}}}}}}}",
"}}}}}}}}}}}}}}}}}}}}}}}}}}}}}}}}}}}}}}}}}}}}}}}}}}}}}}}}}}}}}}}}}}}}}}}}}}}}}}}}}}}}}}}}}}}}}}}}}}}}}}}}}}}}}}}}}}}}}}}}}}}}}}}}",
"}}}}}}}}}}}}}}}}}}}}}}}}}}}}}}}}}}}}}}}}}}}}}}}}}}}}}}}}}}}}}}}}}}}}}}}}}}}}}}}}}}}}}}}}}}}}}}}}}}}}}}}}}}}}}}}}}}}}}}}}}}}}}}}}",
"}}}}}}}}}}}}}}}}}}}}}}}}}}}}}}}}}}}}}}}}}}}}}}}}}}}}}}}}}}}}}}}}}}}}}}}}}}}}}}}}}}}}}}}}}}}}}}}}}}}}}}}}}}}}}}}}}}}}}}}}}}}}}}}}",
"}}}}}}}}}}}}}}}}}}}}}}}}}}}}}}}}}}}}}}}}}}}}}}}}}}}}}}}}}}}}}}}}}}}}}}}}}}}}}}}}}}}}}}}}}}}}}}}}}}}}}}}}}}}}}}}}}}}}}}}}}}}}}}}}",
"}}}}}}}}}}}}}}}}}}}}}}}}}}}}}}}}}}}}}}}}}}}}}}}}}}}}}}}}}}}}}}}}}}}}}}}}}}}}}}}}}}}}}}}}}}}}}}}}}}}}}}}}}}}}}}}}}}}}}}}}}}}}}}}}",
"}}}}}}}}}}}}}}}}}}}}}}}}}}}}}}}}}}}}}}}}}}}}}}}}}}}}}}}}}}}}}}}}}}}}}}}}}}}}}}}}}}}}}}}}}}}}}}}}}}}}}}}}}}}}}}}}}}}}}}}}}}}}}}}}",
"}}}}}}}}}}}}}}}}}}}}}}}}}}}}}}}}}}}}}}}}}}}}}}}}}}}}}}}}}}}}}}}}}}}}}}}}}}}}}}}}}}}}}}}}}}}}}}}}}}}}}}}}}}}}}}}}}}}}}}}}}}}}}}}}",
"}}}}}}}}}}}}}}}}}}}}}}}}}}}}}}}}}}}}}}}}}}}}}}}}}}}}}}}}}}}}}}}}}}}}}}}}}}}}}}}}}}}}}}}}}}}}}}}}}}}}}}}}}}}}}}}}}}}}}}}}}}}}}}}}",
"}}}}}}}}}}}}}}}}}}}}}}}}}}}}}}}}}}}}}}}}}}}}}}}}}}}}}}}}}}}}}}}}}}}}}}}}}}}}}}}}}}}}}}}}}}}}}}}}}}}}}}}}}}}}}}}}}}}}}}}}}}}}}}}}",
"}}}}}}}}}}}}}}}}}}}}}}}}}}}}}}}}}}}}}}}}}}}}}}}}}}}}}}}}}}}}}}}}}}}}}}}}}}}}}}}}}}}}}}}}}}}}}}}}}}}}}}}}}}}}}}}}}}}}}}}}}}}}}}}}",
"}}}}}}}}}}}}}}}}}}}}}}}}}}}}}}}}}}}}}}}}}}}}}}}}}}}}}}}}}}}}}}}}}}}}}}}}}}}}}}}}}}}}}}}}}}}}}}}}}}}}}}}}}}}}}}}}}}}}}}}}}}}}}}}}",
"}}}}}}}}}}}}}}}}}}}}}}}}}}}}}}}}}}}}}}}}}}}}}}}}}}}}}}}}}}}}}}}}}}}}}}}}}}}}}}}}}}}}}}}}}}}}}}}}}}}}}}}}}}}}}}}}}}}}}}}}}}}}}}}}",
"}}}}}}}}}}}}}}}}}}}}}}}}}}}}}}}}}}}}}}}}}}}}}}}}}}}}}}}}}}}}}}}}}}}}}}}}}}}}}}}}}}}}}}}}}}}}}}}}}}}}}}}}}}}}}}}}}}}}}}}}}}}}}}}}",
"}}}}}}}}}}}}}}}}}}}}}}}}}}}}}}}}}}}}}}}}}}}}}}}}}}}}}}}}}}}}}}}}}}}}}}}}}}}}}}}}}}}}}}}}}}}}}}}}}}}}}}}}}}}}}}}}}}}}}}}}}}}}}}}}"
};
